<?xml version="1.0" encoding="UTF-8" standalone="no"?>
<!-- Created with Inkscape (http://www.inkscape.org/) -->

<svg
   xmlns:svg="http://www.w3.org/2000/svg"
   xmlns="http://www.w3.org/2000/svg"
   xmlns:xlink="http://www.w3.org/1999/xlink"
   version="1.1"
   width="640"
   height="640"
   id="svg2">
  <g
     transform="translate(0,-412.36218)"
     id="layer1">
    <path
       d="m 16,428.36218 608,0 0,608.00002 -608,0 z"
       id="path2987"
       style="fill:#191919;fill-opacity:1;stroke:#000000;stroke-width:32;stroke-linecap:butt;stroke-linejoin:miter;stroke-miterlimit:4;stroke-opacity:1;stroke-dasharray:none" />
    <path
       d="m 60,560.36219 80,0 0,80 -80,0 z"
       id="path3757"
       style="fill:#735244;fill-opacity:1;stroke:#000000;stroke-width:2;stroke-miterlimit:4;stroke-opacity:1;stroke-dasharray:none" />
    <path
       d="m 148,560.36219 80,0 0,80 -80,0 z"
       id="path3757-6"
       style="fill:#c29682;fill-opacity:1;stroke:#000000;stroke-width:2;stroke-miterlimit:4;stroke-opacity:1;stroke-dasharray:none" />
    <path
       d="m 236,560.36219 80,0 0,80 -80,0 z"
       id="path3757-5"
       style="fill:#627a9d;fill-opacity:1;stroke:#000000;stroke-width:2;stroke-miterlimit:4;stroke-opacity:1;stroke-dasharray:none" />
    <path
       d="m 324,560.36219 80,0 0,80 -80,0 z"
       id="path3757-9"
       style="fill:#576c43;fill-opacity:1;stroke:#000000;stroke-width:2;stroke-miterlimit:4;stroke-opacity:1;stroke-dasharray:none" />
    <path
       d="m 412,560.36219 80,0 0,80 -80,0 z"
       id="path3757-64"
       style="fill:#8580b1;fill-opacity:1;stroke:#000000;stroke-width:2;stroke-miterlimit:4;stroke-opacity:1;stroke-dasharray:none" />
    <path
       d="m 500,560.36219 80,0 0,80 -80,0 z"
       id="path3757-8"
       style="fill:#67bdaa;fill-opacity:1;stroke:#000000;stroke-width:2;stroke-miterlimit:4;stroke-opacity:1;stroke-dasharray:none" />
    <path
       d="m 60,648.36219 80,0 0,80 -80,0 z"
       id="path3757-1"
       style="fill:#d67e2c;fill-opacity:1;stroke:#000000;stroke-width:2;stroke-miterlimit:4;stroke-opacity:1;stroke-dasharray:none" />
    <path
       d="m 148,648.36219 80,0 0,80 -80,0 z"
       id="path3757-6-2"
       style="fill:#505ba6;fill-opacity:1;stroke:#000000;stroke-width:2;stroke-miterlimit:4;stroke-opacity:1;stroke-dasharray:none" />
    <path
       d="m 236,648.36219 80,0 0,80 -80,0 z"
       id="path3757-5-4"
       style="fill:#c15a63;fill-opacity:1;stroke:#000000;stroke-width:2;stroke-miterlimit:4;stroke-opacity:1;stroke-dasharray:none" />
    <path
       d="m 324,648.36219 80,0 0,80 -80,0 z"
       id="path3757-9-1"
       style="fill:#5e3c6c;fill-opacity:1;stroke:#000000;stroke-width:2;stroke-miterlimit:4;stroke-opacity:1;stroke-dasharray:none" />
    <path
       d="m 412,648.36219 80,0 0,80 -80,0 z"
       id="path3757-64-9"
       style="fill:#9dbc40;fill-opacity:1;stroke:#000000;stroke-width:2;stroke-miterlimit:4;stroke-opacity:1;stroke-dasharray:none" />
    <path
       d="m 500,648.36219 80,0 0,80 -80,0 z"
       id="path3757-8-8"
       style="fill:#e0a32e;fill-opacity:1;stroke:#000000;stroke-width:2;stroke-miterlimit:4;stroke-opacity:1;stroke-dasharray:none" />
    <path
       d="m 60,736.36219 80,0 0,80 -80,0 z"
       id="path3757-52"
       style="fill:#383d96;fill-opacity:1;stroke:#000000;stroke-width:2;stroke-miterlimit:4;stroke-opacity:1;stroke-dasharray:none" />
    <path
       d="m 148,736.36219 80,0 0,80 -80,0 z"
       id="path3757-6-20"
       style="fill:#469449;fill-opacity:1;stroke:#000000;stroke-width:2;stroke-miterlimit:4;stroke-opacity:1;stroke-dasharray:none" />
    <path
       d="m 236,736.36219 80,0 0,80 -80,0 z"
       id="path3757-5-7"
       style="fill:#af363c;fill-opacity:1;stroke:#000000;stroke-width:2;stroke-miterlimit:4;stroke-opacity:1;stroke-dasharray:none" />
    <path
       d="m 324,736.36219 80,0 0,80 -80,0 z"
       id="path3757-9-8"
       style="fill:#e7c71f;fill-opacity:1;stroke:#000000;stroke-width:2;stroke-miterlimit:4;stroke-opacity:1;stroke-dasharray:none" />
    <path
       d="m 412,736.36219 80,0 0,80 -80,0 z"
       id="path3757-64-2"
       style="fill:#bb5695;fill-opacity:1;stroke:#000000;stroke-width:2;stroke-miterlimit:4;stroke-opacity:1;stroke-dasharray:none" />
    <path
       d="m 500,736.36219 80,0 0,80 -80,0 z"
       id="path3757-8-3"
       style="fill:#0885a1;fill-opacity:1;stroke:#000000;stroke-width:2;stroke-miterlimit:4;stroke-opacity:1;stroke-dasharray:none" />
    <path
       d="m 60,824.36219 80,0 0,80 -80,0 z"
       id="path3757-7"
       style="fill:#f3f3f2;fill-opacity:1;stroke:#000000;stroke-width:2;stroke-miterlimit:4;stroke-opacity:1;stroke-dasharray:none" />
    <path
       d="m 148,824.36219 80,0 0,80 -80,0 z"
       id="path3757-6-4"
       style="fill:#c8c8c8;fill-opacity:1;stroke:#000000;stroke-width:2;stroke-miterlimit:4;stroke-opacity:1;stroke-dasharray:none" />
    <path
       d="m 236,824.36219 80,0 0,80 -80,0 z"
       id="path3757-5-0"
       style="fill:#a0a0a0;fill-opacity:1;stroke:#000000;stroke-width:2;stroke-miterlimit:4;stroke-opacity:1;stroke-dasharray:none" />
    <path
       d="m 324,824.36219 80,0 0,80 -80,0 z"
       id="path3757-9-0"
       style="fill:#7a7a79;fill-opacity:1;stroke:#000000;stroke-width:2;stroke-miterlimit:4;stroke-opacity:1;stroke-dasharray:none" />
    <path
       d="m 412,824.36219 80,0 0,80 -80,0 z"
       id="path3757-64-8"
       style="fill:#555555;fill-opacity:1;stroke:#000000;stroke-width:2;stroke-miterlimit:4;stroke-opacity:1;stroke-dasharray:none" />
    <path
       d="m 500,824.36219 80,0 0,80 -80,0 z"
       id="path3757-8-2"
       style="fill:#343434;fill-opacity:1;stroke:#000000;stroke-width:2;stroke-miterlimit:4;stroke-opacity:1;stroke-dasharray:none" />
  </g>
</svg>
